<!DOCTYPE html>
<html>
<head>
<title>FYC</title>
<center><h1>FYC://South Park Season 14 (1080p BD x265 10bit Joy)</h1></center>
<!--Link to torrent = |    |-->

<center><h1>Descption:</h1></center>
<!--Text Start-->
<p><h2>
<center>
  General
  Format : Matroska
  Format version : Version 4 / Version 2
  File size : 170 MiB
  Duration : 22 min 15 s
  Overall bit rate : 1 068 kb/s
  Movie name : untouchables-south.park.s14e01.1080p (1080p x265 10bit Joy)
  Encoded date : UTC 2019-04-02 04:05:53
  Writing application : mkvmerge v26.0.0 ('In The Game') 64-bit
  Writing library : libebml v1.3.6 + libmatroska v1.4.9
  Writing frontend : StaxRip v1.9.0.0, a JoyBell Encode, UTR
  
  Video
  ID : 1
  Format : HEVC
  Format/Info : High Efficiency Video Coding
  Format profile : Main 10@L4@Main
  Codec ID : V_MPEGH/ISO/HEVC
  Duration : 22 min 15 s
  Bit rate : 902 kb/s
  Width : 1 920 pixels
  Height : 1 080 pixels
  Display aspect ratio : 16:9
  Frame rate mode : Constant
  Frame rate : 23.976 (24000/1001) FPS
  Color space : YUV
  Chroma subsampling : 4:2:0
  Bit depth : 10 bits
  Bits/(Pixel*Frame) : 0.018
  Stream size : 144 MiB (84%)
  Writing library : x265 3.0_Au+14-c7e5878bdd31:[Windows][MSVC 1916][64 bit] 10bit
  Encoding settings : cpuid=1111039 / frame-threads=3 / numa-pools=8 / wpp / no-pmode / no-pme / no-psnr / ssim / log-level=2 / input-csp=1 / input-res=1920x1080 / interlace=0 / total-frames=32025 / level-idc=0 / high-tier=1 / uhd-bd=0 / ref=4 / no-allow-non-conformance / no-repeat-headers / annexb / no-aud / no-hrd / info / hash=0 / no-temporal-layers / open-gop / min-keyint=23 / keyint=250 / gop-lookahead=0 / bframes=4 / b-adapt=2 / b-pyramid / bframe-bias=0 / rc-lookahead=80 / lookahead-slices=4 / scenecut=40 / radl=0 / no-splice / no-intra-refresh / ctu=64 / min-cu-size=8 / no-rect / no-amp / max-tu-size=32 / tu-inter-depth=1 / tu-intra-depth=1 / limit-tu=0 / rdoq-level=2 / dynamic-rd=0.00 / ssim-rd / signhide / no-tskip / nr-intra=0 / nr-inter=0 / no-constrained-intra / strong-intra-smoothing / max-merge=3 / limit-refs=3 / limit-modes / me=3 / subme=3 / merange=57 / temporal-mvp / weightp / no-weightb / no-analyze-src-pics / deblock=2:2 / sao / no-sao-non-deblock / rd=4 / early-skip / rskip / no-fast-intra / no-tskip-fast / no-cu-lossless / no-b-intra / splitrd-skip / rdpenalty=0 / psy-rd=0.00 / psy-rdoq=1.00 / no-rd-refine / no-lossless / cbqpoffs=0 / crqpoffs=0 / rc=abr / bitrate=900 / qcomp=0.60 / qpstep=4 / stats-write=0 / stats-read=2 / cplxblur=20.0 / qblur=0.5 / ipratio=1.40 / pbratio=1.30 / aq-mode=2 / aq-strength=0.80 / cutree / zone-count=0 / no-strict-cbr / qg-size=32 / no-rc-grain / qpmax=69 / qpmin=0 / no-const-vbv / sar=0 / overscan=0 / videoformat=5 / range=0 / colorprim=2 / transfer=2 / colormatrix=2 / chromaloc=0 / display-window=0 / max-cll=0,0 / min-luma=0 / max-luma=1023 / log2-max-poc-lsb=8 / vui-timing-info / vui-hrd-info / slices=1 / no-opt-qp-pps / no-opt-ref-list-length-pps / multi-pass-opt-rps / scenecut-bias=0.05 / no-opt-cu-delta-qp / no-aq-motion / no-hdr / no-hdr-opt / no-dhdr10-opt / no-idr-recovery-sei / analysis-reuse-level=10 / scale-factor=0 / refine-intra=0 / refine-inter=0 / refine-mv=0 / refine-ctu-distortion=0 / limit-sao / ctu-info=0 / no-lowpass-dct / refine-analysis-type=0 / copy-pic=1 / max-ausize-factor=1.0 / no-dynamic-refine / no-single-sei / no-hevc-aq / no-svt / qp-adaptation-range=1.00
  Default : Yes
  Forced : No
  
  Audio
  ID : 2
  Format : AAC
  Format/Info : Advanced Audio Codec
  Format profile : HE-AAC / LC
  Codec ID : A_AAC
  Duration : 22 min 15 s
  Bit rate : 164 kb/s
  Channel(s) : 6 channels
  Channel positions : Front: L C R, Side: L R, LFE
  Sampling rate : 48.0 kHz / 24.0 kHz
  Frame rate : 23.438 FPS (1024 spf)
  Compression mode : Lossy
  Delay relative to video : 31 ms
  Stream size : 26.0 MiB (15%)
  Language : English
  Default : No
  Forced : No
  
  Subtitle
  ID : 3
  Format : UTF-8
  Codec ID : S_TEXT/UTF8
  Codec ID/Info : UTF-8 Plain Text
  Duration : 21 min 36 s
  Bit rate : 109 b/s
  Count of elements : 525
  Stream size : 17.4 KiB (0%)
  Language : English
  Default : Yes
  Forced : No 
</center>
</h2></p>
<!--Text End-->

<!--Notes-->
<center><h1>Notes:</h1></center>
<p><h2>
<center>
There is no note for this torrent
</center>
</h2></p>

<style>
/* Styling for the sidebar */
.sidebar {
width: 20%;
height: 100%;
background-color: #222;
position: fixed;
left: 0;
top: 0;
overflow-x: hidden;
padding-top: 20px;
transition: all 0.5s ease;
}

/* Styling for the button */
.button {
background-color: transparent;
border: none;
color: #f1f1f1;
text-align: left;
font-size: 16px;
font-weight: bold;
font-family: 'Ubuntu', sans-serif;
cursor: pointer; 
width: 100%;
height: 50px;
margin-bottom: 5px;
}

/* Styling for the button when hovered */
.button:hover {
background-color: rgba(255, 255, 255, 0.1);
}

/* Styling for the sidebar in dark mode */
body {
background-color: #222;
color: #f1f1f1;
}

/* Styling for the sidebar in dark mode */
.sidebar {
background-color: #222;
}

/* Styling for the button text in dark mode */
.button {
color: #f1f1f1;
}
</style>
</head>
<body>
<!-- Sidebar -->
<div class="sidebar">




<!-- Home -->
<button class="button" onclick="window.location.href='index.html'">Home</button>


<!-- Magnet -->
<button class="button" onclick="window.location.href='magnet:?xt=urn:btih:1D24520A0F3B40BF8FC4119499B66F7BAF27FC0F&dn=South+Park+%281997%29+Season+14+S14+%281080p+BluRay+x265+HEVC+10bit+AAC+5.1+Joy%29+%5BUTR%5D&tr=udp%3A%2F%2Ftracker.opentrackr.org%3A1337%2Fannounce&tr=udp%3A%2F%2Ftracker.coppersurfer.tk%3A6969%2Fannounce&tr=udp%3A%2F%2F9.rarbg.com%3A2710%2Fannounce&tr=udp%3A%2F%2F9.rarbg.to%3A2710%2Fannounce&tr=udp%3A%2F%2Ftracker.torrent.eu.org%3A451%2Fannounce&tr=udp%3A%2F%2Fexodus.desync.com%3A6969%2Fannounce&tr=udp%3A%2F%2Ftracker.tiny-vps.com%3A6969%2Fannounce&tr=udp%3A%2F%2Fopen.demonii.si%3A1337%2Fannounce&tr=udp%3A%2F%2Ftracker.internetwarriors.net%3A1337%2Fannounce&tr=udp%3A%2F%2Ftracker.opentrackr.org%3A1337%2Fannounce&tr=http%3A%2F%2Ftracker.openbittorrent.com%3A80%2Fannounce&tr=udp%3A%2F%2Fopentracker.i2p.rocks%3A6969%2Fannounce&tr=udp%3A%2F%2Ftracker.internetwarriors.net%3A1337%2Fannounce&tr=udp%3A%2F%2Ftracker.leechers-paradise.org%3A6969%2Fannounce&tr=udp%3A%2F%2Fcoppersurfer.tk%3A6969%2Fannounce&tr=udp%3A%2F%2Ftracker.zer0day.to%3A1337%2Fannounce'">Magnet</button>


<!-- Torrent -->
<button class="button" onclick="window.location.href='http://itorrents.org/torrent/1D24520A0F3B40BF8FC4119499B66F7BAF27FC0F.torrent'">Torrent</button>








</div>

<!-- Content -->
<div style="margin-left: 20%;">
<link rel="shortcut icon" href="FYC Rewrite.ico" />
<style>
body {
background-image: url('With\ Credit\ Protogen.png');
background-repeat: no-repeat;
background-attachment: fixed;
background-size: cover;
}

/* Hide the photos by default */
/* DO NOT EDIT THE CODE IT WILL STOP WORKING */
.photo {
display: none;
}
</style>
</head>
<body style="background-color:rgb(64, 64, 64);" onkeydown="handleKeyDown(event)">

<center><p class="photo"><img src="DJ.png" width="350" height="600"></p></center>
<center><p class="photo"><img src="fyclogo.gif" width="399" height="100"></p></center>
<script>
function handleKeyDown(event) {
if (event.key === "p") {
// Show the photos when "p" key is pressed
var photos = document.querySelectorAll(".photo");
photos.forEach(function(photo) {
photo.style.display = "block";
});
}
}
</script>
</div>

<!-- Import the Ubuntu Bold font -->
<link rel="stylesheet" href="https://fonts.googleapis.com/css2?family=Ubuntu:wght@700&display=swap">
</body>
</html>
